<svg width="2800" height="2800" viewBox="0 0 2800 2800" fill="none" xmlns="http://www.w3.org/2000/svg">
<path d="M490.4 2572.68C482 2559.08 472 2544.48 460.4 2528.88C449.2 2512.88 436.8 2497.08 423.2 2481.48C410 2465.48 396.2 2450.28 381.8 2435.88C367.4 2421.08 353 2408.08 338.6 2396.88V2572.68H245V2156.88H338.6V2314.08C363 2288.48 387.4 2261.88 411.8 2234.28C436.6 2206.28 459.6 2180.48 480.8 2156.88H591.8C563.4 2190.48 534.8 2222.88 506 2254.08C477.6 2285.28 447.6 2316.68 416 2348.28C449.2 2375.88 481.2 2408.68 512 2446.68C543.2 2484.68 573 2526.68 601.4 2572.68H490.4ZM898.048 2561.88C882.848 2566.28 863.248 2570.28 839.248 2573.88C815.248 2577.88 790.048 2579.88 763.648 2579.88C736.848 2579.88 714.448 2576.28 696.448 2569.08C678.848 2561.88 664.848 2551.88 654.448 2539.08C644.048 2525.88 636.648 2510.28 632.248 2492.28C627.848 2474.28 625.648 2454.48 625.648 2432.88V2257.08H715.048V2422.08C715.048 2450.88 718.848 2471.68 726.448 2484.48C734.048 2497.28 748.248 2503.68 769.048 2503.68C775.448 2503.68 782.248 2503.48 789.448 2503.08C796.648 2502.28 803.048 2501.48 808.648 2500.68V2257.08H898.048V2561.88ZM1184.17 2412.48C1184.17 2354.88 1162.97 2326.08 1120.57 2326.08C1111.37 2326.08 1102.17 2327.28 1092.97 2329.68C1084.17 2332.08 1076.97 2335.08 1071.37 2338.68V2501.28C1075.77 2502.08 1081.37 2502.88 1088.17 2503.68C1094.97 2504.08 1102.37 2504.28 1110.37 2504.28C1134.77 2504.28 1153.17 2495.88 1165.57 2479.08C1177.97 2462.28 1184.17 2440.08 1184.17 2412.48ZM1275.37 2414.88C1275.37 2440.08 1271.57 2462.88 1263.97 2483.28C1256.77 2503.68 1246.17 2521.08 1232.17 2535.48C1218.17 2549.88 1200.97 2561.08 1180.57 2569.08C1160.17 2576.68 1136.97 2580.48 1110.97 2580.48C1100.17 2580.48 1088.77 2579.88 1076.77 2578.68C1065.17 2577.88 1053.57 2576.68 1041.97 2575.08C1030.77 2573.48 1019.97 2571.68 1009.57 2569.68C999.169 2567.28 989.969 2564.88 981.969 2562.48V2121.48L1071.37 2107.08V2264.28C1081.37 2259.88 1091.77 2256.48 1102.57 2254.08C1113.37 2251.68 1124.97 2250.48 1137.37 2250.48C1159.77 2250.48 1179.57 2254.48 1196.77 2262.48C1213.97 2270.08 1228.37 2281.08 1239.97 2295.48C1251.57 2309.88 1260.37 2327.28 1266.37 2347.68C1272.37 2367.68 1275.37 2390.08 1275.37 2414.88ZM1329.08 2417.28C1329.08 2389.28 1333.28 2364.88 1341.68 2344.08C1350.48 2322.88 1361.88 2305.28 1375.88 2291.28C1389.88 2277.28 1405.88 2266.68 1423.88 2259.48C1442.28 2252.28 1461.08 2248.68 1480.28 2248.68C1525.08 2248.68 1560.48 2262.48 1586.48 2290.08C1612.48 2317.28 1625.48 2357.48 1625.48 2410.68C1625.48 2415.88 1625.28 2421.68 1624.88 2428.08C1624.48 2434.08 1624.08 2439.48 1623.68 2444.28H1420.88C1422.88 2462.68 1431.48 2477.28 1446.68 2488.08C1461.88 2498.88 1482.28 2504.28 1507.88 2504.28C1524.28 2504.28 1540.28 2502.88 1555.88 2500.08C1571.88 2496.88 1584.88 2493.08 1594.88 2488.68L1606.88 2561.28C1602.08 2563.68 1595.68 2566.08 1587.68 2568.48C1579.68 2570.88 1570.68 2572.88 1560.68 2574.48C1551.08 2576.48 1540.68 2578.08 1529.48 2579.28C1518.28 2580.48 1507.08 2581.08 1495.88 2581.08C1467.48 2581.08 1442.68 2576.88 1421.48 2568.48C1400.68 2560.08 1383.28 2548.68 1369.28 2534.28C1355.68 2519.48 1345.48 2502.08 1338.68 2482.08C1332.28 2462.08 1329.08 2440.48 1329.08 2417.28ZM1539.08 2383.08C1538.68 2375.48 1537.28 2368.08 1534.88 2360.88C1532.88 2353.68 1529.48 2347.28 1524.68 2341.68C1520.28 2336.08 1514.48 2331.48 1507.28 2327.88C1500.48 2324.28 1491.88 2322.48 1481.48 2322.48C1471.48 2322.48 1462.88 2324.28 1455.68 2327.88C1448.48 2331.08 1442.48 2335.48 1437.68 2341.08C1432.88 2346.68 1429.08 2353.28 1426.28 2360.88C1423.88 2368.08 1422.08 2375.48 1420.88 2383.08H1539.08ZM1691.47 2178.48L1780.87 2164.08V2257.08H1888.27V2331.48H1780.87V2442.48C1780.87 2461.28 1784.07 2476.28 1790.47 2487.48C1797.27 2498.68 1810.67 2504.28 1830.67 2504.28C1840.27 2504.28 1850.07 2503.48 1860.07 2501.88C1870.47 2499.88 1879.87 2497.28 1888.27 2494.08L1900.87 2563.68C1890.07 2568.08 1878.07 2571.88 1864.87 2575.08C1851.67 2578.28 1835.47 2579.88 1816.27 2579.88C1791.87 2579.88 1771.67 2576.68 1755.67 2570.28C1739.67 2563.48 1726.87 2554.28 1717.27 2542.68C1707.67 2530.68 1700.87 2516.28 1696.87 2499.48C1693.27 2482.68 1691.47 2464.08 1691.47 2443.68V2178.48ZM2069.95 2510.28C2078.75 2510.28 2087.15 2510.08 2095.15 2509.68C2103.15 2509.28 2109.55 2508.68 2114.35 2507.88V2440.08C2110.75 2439.28 2105.35 2438.48 2098.15 2437.68C2090.95 2436.88 2084.35 2436.48 2078.35 2436.48C2069.95 2436.48 2061.95 2437.08 2054.35 2438.28C2047.15 2439.08 2040.75 2440.88 2035.15 2443.68C2029.55 2446.48 2025.15 2450.28 2021.95 2455.08C2018.75 2459.88 2017.15 2465.88 2017.15 2473.08C2017.15 2487.08 2021.75 2496.88 2030.95 2502.48C2040.55 2507.68 2053.55 2510.28 2069.95 2510.28ZM2062.75 2248.68C2089.15 2248.68 2111.15 2251.68 2128.75 2257.68C2146.35 2263.68 2160.35 2272.28 2170.75 2283.48C2181.55 2294.68 2189.15 2308.28 2193.55 2324.28C2197.95 2340.28 2200.15 2358.08 2200.15 2377.68V2563.68C2187.35 2566.48 2169.55 2569.68 2146.75 2573.28C2123.95 2577.28 2096.35 2579.28 2063.95 2579.28C2043.55 2579.28 2024.95 2577.48 2008.15 2573.88C1991.75 2570.28 1977.55 2564.48 1965.55 2556.48C1953.55 2548.08 1944.35 2537.28 1937.95 2524.08C1931.55 2510.88 1928.35 2494.68 1928.35 2475.48C1928.35 2457.08 1931.95 2441.48 1939.15 2428.68C1946.75 2415.88 1956.75 2405.68 1969.15 2398.08C1981.55 2390.48 1995.75 2385.08 2011.75 2381.88C2027.75 2378.28 2044.35 2376.48 2061.55 2376.48C2073.15 2376.48 2083.35 2377.08 2092.15 2378.28C2101.35 2379.08 2108.75 2380.28 2114.35 2381.88V2373.48C2114.35 2358.28 2109.75 2346.08 2100.55 2336.88C2091.35 2327.68 2075.35 2323.08 2052.55 2323.08C2037.35 2323.08 2022.35 2324.28 2007.55 2326.68C1992.75 2328.68 1979.95 2331.68 1969.15 2335.68L1957.75 2263.68C1962.95 2262.08 1969.35 2260.48 1976.95 2258.88C1984.95 2256.88 1993.55 2255.28 2002.75 2254.08C2011.95 2252.48 2021.55 2251.28 2031.55 2250.48C2041.95 2249.28 2052.35 2248.68 2062.75 2248.68ZM2370.39 2572.68H2280.99V2257.08H2370.39V2572.68ZM2378.79 2165.88C2378.79 2182.28 2373.39 2195.28 2362.59 2204.88C2352.19 2214.08 2339.79 2218.68 2325.39 2218.68C2310.99 2218.68 2298.39 2214.08 2287.59 2204.88C2277.19 2195.28 2271.99 2182.28 2271.99 2165.88C2271.99 2149.48 2277.19 2136.68 2287.59 2127.48C2298.39 2117.88 2310.99 2113.08 2325.39 2113.08C2339.79 2113.08 2352.19 2117.88 2362.59 2127.48C2373.39 2136.68 2378.79 2149.48 2378.79 2165.88ZM2580.43 2578.68C2554.43 2578.28 2533.23 2575.48 2516.83 2570.28C2500.83 2565.08 2488.03 2557.88 2478.43 2548.68C2469.23 2539.08 2462.83 2527.68 2459.23 2514.48C2456.03 2500.88 2454.43 2485.68 2454.43 2468.88V2121.48L2543.83 2107.08V2450.88C2543.83 2458.88 2544.43 2466.08 2545.63 2472.48C2546.83 2478.88 2549.03 2484.28 2552.23 2488.68C2555.83 2493.08 2560.83 2496.68 2567.23 2499.48C2573.63 2502.28 2582.23 2504.08 2593.03 2504.88L2580.43 2578.68Z" fill="#326CE5"/>
<g clip-path="url(#clip0_1305_10)">
<path d="M1393.05 156.158C1413.74 155.118 1434.37 159.219 1453.04 168.085L2100.1 475.217C2116.84 483.166 2131.56 494.733 2143.14 509.059C2154.73 523.384 2162.9 540.1 2167.04 557.964L2326.9 1248.23C2331.04 1266.1 2331.03 1284.66 2326.89 1302.54C2322.75 1320.41 2314.58 1337.13 2302.98 1351.46L1855.34 1905.02C1843.74 1919.33 1829.02 1930.87 1812.28 1938.81C1795.53 1946.74 1777.19 1950.85 1758.61 1950.83L1040.48 1951C1021.89 1951 1003.55 1946.88 986.801 1938.93C970.056 1930.99 955.341 1919.42 943.749 1905.1L495.939 1351.62C493.435 1348.5 491.088 1345.26 488.906 1341.92C479.905 1328.23 473.78 1312.9 470.895 1296.83C468.01 1280.77 468.423 1264.3 472.109 1248.39L631.721 558.128C635.858 540.264 644.025 523.549 655.614 509.224C667.202 494.898 681.916 483.331 698.662 475.382L1345.64 168.085C1360.48 161.037 1376.6 156.982 1393.05 156.158ZM1918.92 577.418C1918.92 577.418 1851.08 704.587 1773.2 704.588H1540.69C1450.41 704.588 1399.56 779.3 1399.56 879.715C1399.56 779.301 1348.71 704.588 1258.43 704.588H1025.92C948.041 704.588 880.2 577.418 880.2 577.418C880.2 577.418 880.2 767.813 880.2 845.685C880.2 923.556 926.945 975.487 981.576 985.873C1036.22 996.253 1296.97 1063.67 1297.25 1063.74L1231.32 1483.54H828.739C817.886 1483.54 809.106 1493.88 809.106 1506.66C809.106 1519.44 817.886 1529.78 828.739 1529.78H1970.26C1981.11 1529.78 1989.89 1519.44 1989.89 1506.66C1989.89 1493.88 1981.11 1483.54 1970.26 1483.54H1567.8L1501.87 1063.74C1501.87 1063.74 1762.87 996.259 1817.55 985.873C1872.22 975.487 1918.92 923.556 1918.92 845.685V577.418Z" fill="#326CE5"/>
</g>
<defs>
<clipPath id="clip0_1305_10">
<rect width="1861" height="1795" fill="white" transform="translate(469 156)"/>
</clipPath>
</defs>
</svg>
